<?xml version="1.0" encoding="UTF-8"?>
<svg width="25px" height="26px" viewBox="0 0 25 26" version="1.1" xmlns="http://www.w3.org/2000/svg" xmlns:xlink="http://www.w3.org/1999/xlink">
    <!-- Generator: Sketch 55.2 (78181) - https://sketchapp.com -->
    <title>Plusadmin_mini</title>
    <desc>Created with Sketch.</desc>
    <g id="Plusadmin_dashboard" stroke="none" stroke-width="1" fill="none" fill-rule="evenodd">
        <g transform="translate(-38.000000, -197.000000)" fill-rule="nonzero" id="Plusadmin_logo">
            <g transform="translate(38.000000, 196.000000)">
                <g id="Plusadmin_mini" transform="translate(0.000000, 1.000000)">
                    <path d="M20.577168,26 L4.422832,26 C1.98853769,26 0,23.9713799 0,21.490971 L0,4.51198183 C0,2.0286201 1.98853769,0 4.422832,0 L20.577168,0 C23.0085678,0 25,2.0286201 25,4.51198183 L25,21.490971 C25,23.9713799 23.0085678,26 20.577168,26 Z" id="Path" fill="#0033C4"></path>
                    <g id="Group" transform="translate(3.000000, 6.000000)" fill="#FFFFFF">
                        <path d="M8.17045455,6.63684641 C8.17045455,4.79820261 8.16761364,2.9624183 8.17329545,1.12377451 C8.17329545,0.917892157 8.14772727,0.64624183 8.25852273,0.523284314 C8.46306818,0.297385621 8.76988636,0.0142973856 9.02272727,0.022875817 C9.27272727,0.0314542484 9.56534091,0.337418301 9.73579545,0.583333333 C9.85511364,0.760620915 9.82386364,1.05800654 9.82386364,1.30106209 C9.82954545,4.91830065 9.82954545,8.53839869 9.82386364,12.1556373 C9.82386364,12.3815359 9.79829545,12.6074346 9.75568182,12.8304739 C9.67613636,13.2479575 9.39204545,13.4252451 8.98863636,13.4309927 C8.57386364,13.4338235 8.30965909,13.2222222 8.21590909,12.8247549 C8.17045455,12.6245915 8.17329545,12.4101307 8.17329545,12.2042484 C8.16761364,10.3484477 8.17045455,8.49264706 8.17045455,6.63684641 Z" id="Path"></path>
                        <path d="M4.09659091,6.61683007 C4.09659091,4.89256536 4.08522727,3.16830065 4.10795455,1.44689542 C4.11079545,1.16666667 4.19602273,0.826388889 4.36647727,0.617647059 C4.74147727,0.157271242 5.50284091,0.357434641 5.66193182,0.940767974 C5.73579545,1.20955882 5.74431818,1.50122549 5.74431818,1.78431373 C5.75,5.04125817 5.75,8.30106209 5.74431818,11.5580065 C5.74431818,11.7839052 5.72159091,12.0098039 5.69318182,12.2357026 C5.63068182,12.7075163 5.33238636,12.9505719 4.88636364,12.9362745 C4.40625,12.9191176 4.12215909,12.6160131 4.10795455,12.129902 C4.08522727,11.3921569 4.09943182,10.6515523 4.09659091,9.91380719 C4.09659091,8.8129085 4.09659091,7.71486928 4.09659091,6.61683007 Z" id="Path"></path>
                        <path d="M12.2414773,6.65400327 C12.2414773,4.9869281 12.2414773,3.31985294 12.2414773,1.65277778 C12.2414773,1.50122549 12.2329545,1.34681373 12.2528409,1.19812092 C12.3181818,0.694852941 12.6704545,0.328839869 13.0880682,0.363153595 C13.5681818,0.406045752 13.8210227,0.709150327 13.8778409,1.17810458 C13.8977273,1.34681373 13.8977273,1.51838235 13.9005682,1.6870915 C13.9005682,5.00122549 13.9005682,8.31535948 13.9005682,11.6294935 C13.9005682,12.5216503 13.6420455,12.9305556 13.0795455,12.9363332 C12.5113636,12.9419935 12.2443182,12.5302288 12.2414773,11.6466503 C12.2414773,9.98815359 12.2414773,8.32107843 12.2414773,6.65400327 Z" id="Path"></path>
                        <path d="M17.9744318,6.52818627 C17.9744318,7.66339869 18.0085227,8.80147059 17.9545455,9.93668301 C17.9375,10.2655229 17.75,10.6715686 17.5056818,10.8860294 C17.1477273,11.1977124 16.5625,10.9517974 16.4147727,10.4885621 C16.34375,10.2598039 16.3210227,10.0053105 16.3210227,9.7622549 C16.3153409,7.58333333 16.3153409,5.40727124 16.3181818,3.22834967 C16.3181818,3.09681373 16.3153409,2.9624183 16.3352273,2.83088235 C16.4090909,2.34763072 16.6448864,2.02165033 17.1789773,2.02729522 C17.625,2.03308824 17.9545455,2.3619281 17.9630682,2.89093137 C17.9857955,4.10334967 17.96875,5.31576797 17.96875,6.52818627 C17.9715909,6.52818627 17.9715909,6.52818627 17.9744318,6.52818627 Z" id="Path"></path>
                        <path d="M0.0198863636,6.46813725 C0.0198863636,5.3129085 0.0142045455,4.15767974 0.0227272727,3.00245098 C0.0255681818,2.39910131 0.321022727,2.04166667 0.801136364,2.02736928 C1.29261364,2.01021242 1.63636364,2.33619281 1.64204545,2.94526144 C1.66193182,5.33292484 1.66193182,7.71772876 1.64488636,10.1053922 C1.64204545,10.6744281 1.29261364,11.0061275 0.835227273,11.0061275 C0.352272727,11.0061275 0.03125,10.6429739 0.0284090909,10.0482026 C0.0142045455,8.85580065 0.0198863636,7.66339869 0.0198863636,6.46813725 Z" id="Path"></path>
                    </g>
                </g>
            </g>
        </g>
    </g>
</svg>