<?xml version="1.0" encoding="UTF-8"?>
<svg width="148px" height="26px" viewBox="0 0 148 26" version="1.1" xmlns="http://www.w3.org/2000/svg" xmlns:xlink="http://www.w3.org/1999/xlink">
    <!-- Generator: Sketch 55.2 (78181) - https://sketchapp.com -->
    <title>Plusadmin_logo Copy</title>
    <desc>Created with Sketch.</desc>
    <g id="Plusadmin_dashboard" stroke="none" stroke-width="1" fill="none" fill-rule="evenodd">
        <g id="Plusadmin_logo-Copy" fill-rule="nonzero">
            <g id="Plusadmin_mini">
                <path d="M20.577168,26 L4.422832,26 C1.98853769,26 0,23.9713799 0,21.490971 L0,4.51198183 C0,2.0286201 1.98853769,0 4.422832,0 L20.577168,0 C23.0085678,0 25,2.0286201 25,4.51198183 L25,21.490971 C25,23.9713799 23.0085678,26 20.577168,26 Z" id="Path" fill="#0033C4"></path>
                <g id="Group" transform="translate(3.000000, 6.000000)" fill="#FFFFFF">
                    <path d="M8.17045455,6.63684641 C8.17045455,4.79820261 8.16761364,2.9624183 8.17329545,1.12377451 C8.17329545,0.917892157 8.14772727,0.64624183 8.25852273,0.523284314 C8.46306818,0.297385621 8.76988636,0.0142973856 9.02272727,0.022875817 C9.27272727,0.0314542484 9.56534091,0.337418301 9.73579545,0.583333333 C9.85511364,0.760620915 9.82386364,1.05800654 9.82386364,1.30106209 C9.82954545,4.91830065 9.82954545,8.53839869 9.82386364,12.1556373 C9.82386364,12.3815359 9.79829545,12.6074346 9.75568182,12.8304739 C9.67613636,13.2479575 9.39204545,13.4252451 8.98863636,13.4309927 C8.57386364,13.4338235 8.30965909,13.2222222 8.21590909,12.8247549 C8.17045455,12.6245915 8.17329545,12.4101307 8.17329545,12.2042484 C8.16761364,10.3484477 8.17045455,8.49264706 8.17045455,6.63684641 Z" id="Path"></path>
                    <path d="M4.09659091,6.61683007 C4.09659091,4.89256536 4.08522727,3.16830065 4.10795455,1.44689542 C4.11079545,1.16666667 4.19602273,0.826388889 4.36647727,0.617647059 C4.74147727,0.157271242 5.50284091,0.357434641 5.66193182,0.940767974 C5.73579545,1.20955882 5.74431818,1.50122549 5.74431818,1.78431373 C5.75,5.04125817 5.75,8.30106209 5.74431818,11.5580065 C5.74431818,11.7839052 5.72159091,12.0098039 5.69318182,12.2357026 C5.63068182,12.7075163 5.33238636,12.9505719 4.88636364,12.9362745 C4.40625,12.9191176 4.12215909,12.6160131 4.10795455,12.129902 C4.08522727,11.3921569 4.09943182,10.6515523 4.09659091,9.91380719 C4.09659091,8.8129085 4.09659091,7.71486928 4.09659091,6.61683007 Z" id="Path"></path>
                    <path d="M12.2414773,6.65400327 C12.2414773,4.9869281 12.2414773,3.31985294 12.2414773,1.65277778 C12.2414773,1.50122549 12.2329545,1.34681373 12.2528409,1.19812092 C12.3181818,0.694852941 12.6704545,0.328839869 13.0880682,0.363153595 C13.5681818,0.406045752 13.8210227,0.709150327 13.8778409,1.17810458 C13.8977273,1.34681373 13.8977273,1.51838235 13.9005682,1.6870915 C13.9005682,5.00122549 13.9005682,8.31535948 13.9005682,11.6294935 C13.9005682,12.5216503 13.6420455,12.9305556 13.0795455,12.9363332 C12.5113636,12.9419935 12.2443182,12.5302288 12.2414773,11.6466503 C12.2414773,9.98815359 12.2414773,8.32107843 12.2414773,6.65400327 Z" id="Path"></path>
                    <path d="M17.9744318,6.52818627 C17.9744318,7.66339869 18.0085227,8.80147059 17.9545455,9.93668301 C17.9375,10.2655229 17.75,10.6715686 17.5056818,10.8860294 C17.1477273,11.1977124 16.5625,10.9517974 16.4147727,10.4885621 C16.34375,10.2598039 16.3210227,10.0053105 16.3210227,9.7622549 C16.3153409,7.58333333 16.3153409,5.40727124 16.3181818,3.22834967 C16.3181818,3.09681373 16.3153409,2.9624183 16.3352273,2.83088235 C16.4090909,2.34763072 16.6448864,2.02165033 17.1789773,2.02729522 C17.625,2.03308824 17.9545455,2.3619281 17.9630682,2.89093137 C17.9857955,4.10334967 17.96875,5.31576797 17.96875,6.52818627 C17.9715909,6.52818627 17.9715909,6.52818627 17.9744318,6.52818627 Z" id="Path"></path>
                    <path d="M0.0198863636,6.46813725 C0.0198863636,5.3129085 0.0142045455,4.15767974 0.0227272727,3.00245098 C0.0255681818,2.39910131 0.321022727,2.04166667 0.801136364,2.02736928 C1.29261364,2.01021242 1.63636364,2.33619281 1.64204545,2.94526144 C1.66193182,5.33292484 1.66193182,7.71772876 1.64488636,10.1053922 C1.64204545,10.6744281 1.29261364,11.0061275 0.835227273,11.0061275 C0.352272727,11.0061275 0.03125,10.6429739 0.0284090909,10.0482026 C0.0142045455,8.85580065 0.0198863636,7.66339869 0.0198863636,6.46813725 Z" id="Path"></path>
                </g>
            </g>
            <path d="M40.712,6.2 C41.5600042,6.2 42.3439964,6.42799772 43.064,6.884 C43.7840036,7.34000228 44.3559979,7.95999608 44.78,8.744 C45.2040021,9.52800392 45.416,10.3919953 45.416,11.336 C45.416,12.2800047 45.2040021,13.151996 44.78,13.952 C44.3559979,14.752004 43.7840036,15.3839977 43.064,15.848 C42.3439964,16.3120023 41.5600042,16.544 40.712,16.544 L36.2,16.544 L36.2,21.848 C36.2,22.1680016 36.096001,22.4399989 35.888,22.664 C35.679999,22.8880011 35.4160016,23 35.096,23 C34.7599983,23 34.492,22.8920011 34.292,22.676 C34.091999,22.4599989 33.992,22.1840017 33.992,21.848 L33.992,7.352 C33.992,7.0319984 34.1039989,6.76000112 34.328,6.536 C34.5520011,6.31199888 34.8239984,6.2 35.144,6.2 L40.712,6.2 Z M40.712,14.36 C41.1440022,14.36 41.5439982,14.2200014 41.912,13.94 C42.2800018,13.6599986 42.5719989,13.2880023 42.788,12.824 C43.0040011,12.3599977 43.112,11.8640026 43.112,11.336 C43.112,10.5199959 42.8760024,9.82800284 42.404,9.26 C41.9319976,8.69199716 41.3680033,8.408 40.712,8.408 L36.2,8.408 L36.2,14.36 L40.712,14.36 Z M50.576,21.848 C50.576,22.1680016 50.4640011,22.4399989 50.24,22.664 C50.0159989,22.8880011 49.7440016,23 49.424,23 C49.1039984,23 48.8360011,22.8880011 48.62,22.664 C48.4039989,22.4399989 48.296,22.1680016 48.296,21.848 L48.296,6.392 C48.296,6.0719984 48.4079989,5.80000112 48.632,5.576 C48.8560011,5.35199888 49.1279984,5.24 49.448,5.24 C49.7680016,5.24 50.0359989,5.35199888 50.252,5.576 C50.4680011,5.80000112 50.576,6.0719984 50.576,6.392 L50.576,21.848 Z M63.536,10.424 C63.8720017,10.424 64.1479989,10.5359989 64.364,10.76 C64.5800011,10.9840011 64.688,11.2559984 64.688,11.576 L64.688,17.96 C64.688,19.6240083 64.2280046,20.9159954 63.308,21.836 C62.3879954,22.7560046 61.0880084,23.216 59.408,23.216 C57.7439917,23.216 56.4560046,22.7560046 55.544,21.836 C54.6319954,20.9159954 54.176,19.6240083 54.176,17.96 L54.176,11.576 C54.176,11.2559984 54.2839989,10.9840011 54.5,10.76 C54.7160011,10.5359989 54.9839984,10.424 55.304,10.424 C55.6400017,10.424 55.9159989,10.5359989 56.132,10.76 C56.3480011,10.9840011 56.456,11.2559984 56.456,11.576 L56.456,17.96 C56.456,20.0560105 57.4399902,21.104 59.408,21.104 C60.3840049,21.104 61.1279974,20.8400026 61.64,20.312 C62.1520026,19.7839974 62.408,19.0000052 62.408,17.96 L62.408,11.576 C62.408,11.2559984 62.5159989,10.9840011 62.732,10.76 C62.9480011,10.5359989 63.2159984,10.424 63.536,10.424 Z M67.376,21.032 C67.2319993,20.8079989 67.16,20.592001 67.16,20.384 C67.16,20.0639984 67.3279983,19.7920011 67.664,19.568 C67.8240008,19.4559994 68.007999,19.4 68.216,19.4 C68.5040014,19.4 68.7679988,19.5199988 69.008,19.76 C69.4880024,20.3040027 70.0039972,20.7119986 70.556,20.984 C71.1080028,21.2560014 71.7679962,21.392 72.536,21.392 C73.144003,21.3759999 73.6799977,21.2360013 74.144,20.972 C74.6080023,20.7079987 74.84,20.280003 74.84,19.688 C74.84,19.1439973 74.6040024,18.7280014 74.132,18.44 C73.66,18.1519986 72.9680046,17.8880012 72.056,17.648 C71.16,17.4079988 70.416003,17.1560013 69.824,16.892 C69.231997,16.6279987 68.732002,16.2440025 68.324,15.74 C67.915998,15.2359975 67.712,14.5760041 67.712,13.76 C67.712,13.0399964 67.915998,12.4080027 68.324,11.864 C68.732002,11.3199973 69.2759966,10.8960015 69.956,10.592 C70.6360034,10.2879985 71.375996,10.136 72.176,10.136 C72.9440038,10.136 73.7079962,10.2799986 74.468,10.568 C75.2280038,10.8560014 75.8479976,11.295997 76.328,11.888 C76.520001,12.1120011 76.616,12.3439988 76.616,12.584 C76.616,12.8400013 76.4880013,13.0879988 76.232,13.328 C76.0719992,13.4720007 75.8720012,13.544 75.632,13.544 C75.3439986,13.544 75.1120009,13.448001 74.936,13.256 C74.5999983,12.8719981 74.1880024,12.576001 73.7,12.368 C73.2119976,12.159999 72.672003,12.056 72.08,12.056 C71.471997,12.056 70.9560021,12.1799988 70.532,12.428 C70.1079979,12.6760012 69.896,13.095997 69.896,13.688 C69.9120001,14.2480028 70.1559976,14.6639986 70.628,14.936 C71.1000024,15.2080014 71.8239951,15.4719987 72.8,15.728 C73.6480042,15.9520011 74.3519972,16.1919987 74.912,16.448 C75.4720028,16.7040013 75.9439981,17.0839975 76.328,17.588 C76.7120019,18.0920025 76.904,18.7519959 76.904,19.568 C76.904,20.3200038 76.6880022,20.9719972 76.256,21.524 C75.8239978,22.0760028 75.2600035,22.4999985 74.564,22.796 C73.8679965,23.0920015 73.1280039,23.24 72.344,23.24 C71.335995,23.24 70.4040043,23.0640018 69.548,22.712 C68.6919957,22.3599982 67.968003,21.8000038 67.376,21.032 Z M89.744,10.256 C90.0800017,10.256 90.3559989,10.3639989 90.572,10.58 C90.7880011,10.7960011 90.896,11.0799982 90.896,11.432 L90.896,21.848 C90.896,22.1680016 90.7880011,22.4399989 90.572,22.664 C90.3559989,22.8880011 90.0800017,23 89.744,23 C89.4079983,23 89.136001,22.8920011 88.928,22.676 C88.719999,22.4599989 88.616,22.1840017 88.616,21.848 L88.616,21.224 C88.1999979,21.7840028 87.6320036,22.259998 86.912,22.652 C86.1919964,23.044002 85.4160042,23.24 84.584,23.24 C83.4959946,23.24 82.5080044,22.9600028 81.62,22.4 C80.7319956,21.8399972 80.0360025,21.060005 79.532,20.06 C79.0279975,19.059995 78.776,17.9360062 78.776,16.688 C78.776,15.4399938 79.0279975,14.316005 79.532,13.316 C80.0360025,12.315995 80.7279956,11.5360028 81.608,10.976 C82.4880044,10.4159972 83.4559947,10.136 84.512,10.136 C85.3600042,10.136 86.1479964,10.3119982 86.876,10.664 C87.6040036,11.0160018 88.1839978,11.4639973 88.616,12.008 L88.616,11.432 C88.616,11.0959983 88.719999,10.8160011 88.928,10.592 C89.136001,10.3679989 89.4079983,10.256 89.744,10.256 Z M84.848,21.128 C85.6000038,21.128 86.2679971,20.9360019 86.852,20.552 C87.4360029,20.1679981 87.8919984,19.6400034 88.22,18.968 C88.5480016,18.2959966 88.712,17.5360042 88.712,16.688 C88.712,15.8559958 88.5480016,15.1040034 88.22,14.432 C87.8919984,13.7599966 87.4360029,13.228002 86.852,12.836 C86.2679971,12.443998 85.6000038,12.248 84.848,12.248 C84.0959962,12.248 83.4280029,12.4399981 82.844,12.824 C82.2599971,13.2080019 81.8040016,13.7359966 81.476,14.408 C81.1479984,15.0800034 80.984,15.8399958 80.984,16.688 C80.984,17.5360042 81.1479984,18.2959966 81.476,18.968 C81.8040016,19.6400034 82.2599971,20.1679981 82.844,20.552 C83.4280029,20.9360019 84.0959962,21.128 84.848,21.128 Z M104.48,5.24 C104.816002,5.24 105.091999,5.34799892 105.308,5.564 C105.524001,5.78000108 105.632,6.05599832 105.632,6.392 L105.632,21.848 C105.632,22.1680016 105.524001,22.4399989 105.308,22.664 C105.091999,22.8880011 104.816002,23 104.48,23 C104.143998,23 103.872001,22.8920011 103.664,22.676 C103.455999,22.4599989 103.352,22.1840017 103.352,21.848 L103.352,21.176 C102.951998,21.7520029 102.388004,22.24 101.66,22.64 C100.931996,23.040002 100.152004,23.24 99.32,23.24 C98.2319946,23.24 97.2480044,22.9600028 96.368,22.4 C95.4879956,21.8399972 94.7920026,21.060005 94.28,20.06 C93.7679974,19.059995 93.512,17.9360062 93.512,16.688 C93.512,15.4399938 93.7639975,14.316005 94.268,13.316 C94.7720025,12.315995 95.4639956,11.5360028 96.344,10.976 C97.2240044,10.4159972 98.1919947,10.136 99.248,10.136 C100.096004,10.136 100.879996,10.3119982 101.6,10.664 C102.320004,11.0160018 102.903998,11.4719972 103.352,12.032 L103.352,6.392 C103.352,6.05599832 103.455999,5.78000108 103.664,5.564 C103.872001,5.34799892 104.143998,5.24 104.48,5.24 Z M99.584,21.128 C100.336004,21.128 101.003997,20.9360019 101.588,20.552 C102.172003,20.1679981 102.627998,19.6400034 102.956,18.968 C103.284002,18.2959966 103.448,17.5360042 103.448,16.688 C103.448,15.8559958 103.284002,15.1000034 102.956,14.42 C102.627998,13.7399966 102.172003,13.2080019 101.588,12.824 C101.003997,12.4399981 100.336004,12.248 99.584,12.248 C98.8319962,12.248 98.1640029,12.4399981 97.58,12.824 C96.9959971,13.2080019 96.5400016,13.7399966 96.212,14.42 C95.8839984,15.1000034 95.72,15.8559958 95.72,16.688 C95.72,17.5360042 95.8839984,18.2959966 96.212,18.968 C96.5400016,19.6400034 96.9959971,20.1679981 97.58,20.552 C98.1640029,20.9360019 98.8319962,21.128 99.584,21.128 Z M123.44,10.208 C126.240014,10.208 127.64,11.9519826 127.64,15.44 L127.64,21.848 C127.64,22.1840017 127.536001,22.4599989 127.328,22.676 C127.119999,22.8920011 126.848002,23 126.512,23 C126.175998,23 125.900001,22.8880011 125.684,22.664 C125.467999,22.4399989 125.36,22.1680016 125.36,21.848 L125.36,15.464 C125.36,13.3679895 124.480009,12.32 122.72,12.32 C122.095997,12.32 121.532003,12.4599986 121.028,12.74 C120.523997,13.0200014 120.132001,13.3999976 119.852,13.88 C119.571999,14.3600024 119.432,14.8879971 119.432,15.464 L119.432,21.848 C119.432,22.1680016 119.324001,22.4399989 119.108,22.664 C118.891999,22.8880011 118.616002,23 118.28,23 C117.943998,23 117.672001,22.8920011 117.464,22.676 C117.255999,22.4599989 117.152,22.1840017 117.152,21.848 L117.152,15.44 C117.152,14.4959953 116.952002,13.7400028 116.552,13.172 C116.151998,12.6039972 115.488005,12.32 114.56,12.32 C113.615995,12.32 112.836003,12.619997 112.22,13.22 C111.603997,13.820003 111.296,14.5599956 111.296,15.44 L111.296,21.848 C111.296,22.1680016 111.188001,22.4399989 110.972,22.664 C110.755999,22.8880011 110.480002,23 110.144,23 C109.807998,23 109.536001,22.8920011 109.328,22.676 C109.119999,22.4599989 109.016,22.1840017 109.016,21.848 L109.016,11.576 C109.016,11.2559984 109.123999,10.9840011 109.34,10.76 C109.556001,10.5359989 109.823998,10.424 110.144,10.424 C110.480002,10.424 110.755999,10.5359989 110.972,10.76 C111.188001,10.9840011 111.296,11.2559984 111.296,11.576 L111.296,12.416 C111.712002,11.7919969 112.267997,11.2680021 112.964,10.844 C113.660003,10.4199979 114.415996,10.208 115.232,10.208 C117.21601,10.208 118.503997,11.0879912 119.096,12.848 C119.448002,12.1759966 120.031996,11.5680027 120.848,11.024 C121.664004,10.4799973 122.527995,10.208 123.44,10.208 Z M133.208,21.848 C133.208,22.1680016 133.100001,22.4399989 132.884,22.664 C132.667999,22.8880011 132.392002,23 132.056,23 C131.735998,23 131.468001,22.8880011 131.252,22.664 C131.035999,22.4399989 130.928,22.1680016 130.928,21.848 L130.928,11.456 C130.928,11.1359984 131.035999,10.8640011 131.252,10.64 C131.468001,10.4159989 131.735998,10.304 132.056,10.304 C132.392002,10.304 132.667999,10.4159989 132.884,10.64 C133.100001,10.8640011 133.208,11.1359984 133.208,11.456 L133.208,21.848 Z M132.056,8.72 C131.591998,8.72 131.26,8.63600084 131.06,8.468 C130.859999,8.29999916 130.76,8.03200184 130.76,7.664 L130.76,7.28 C130.76,6.89599808 130.867999,6.6240008 131.084,6.464 C131.300001,6.3039992 131.631998,6.224 132.08,6.224 C132.528002,6.224 132.851999,6.30799916 133.052,6.476 C133.252001,6.64400084 133.352,6.91199816 133.352,7.28 L133.352,7.664 C133.352,8.04800192 133.248001,8.3199992 133.04,8.48 C132.831999,8.6400008 132.504002,8.72 132.056,8.72 Z M142.904,10.136 C145.784014,10.136 147.224,11.8639827 147.224,15.32 L147.224,21.848 C147.224,22.1680016 147.116001,22.4399989 146.9,22.664 C146.683999,22.8880011 146.408002,23 146.072,23 C145.751998,23 145.484001,22.8880011 145.268,22.664 C145.051999,22.4399989 144.944,22.1680016 144.944,21.848 L144.944,15.344 C144.944,14.3999953 144.728002,13.6480028 144.296,13.088 C143.863998,12.5279972 143.160005,12.248 142.184,12.248 C141.543997,12.248 140.964003,12.3879986 140.444,12.668 C139.923997,12.9480014 139.516001,13.3239976 139.22,13.796 C138.923999,14.2680024 138.776,14.7839972 138.776,15.344 L138.776,21.848 C138.776,22.1680016 138.668001,22.4399989 138.452,22.664 C138.235999,22.8880011 137.960002,23 137.624,23 C137.287998,23 137.016001,22.8920011 136.808,22.676 C136.599999,22.4599989 136.496,22.1840017 136.496,21.848 L136.496,11.576 C136.496,11.2559984 136.603999,10.9840011 136.82,10.76 C137.036001,10.5359989 137.303998,10.424 137.624,10.424 C137.960002,10.424 138.235999,10.5359989 138.452,10.76 C138.668001,10.9840011 138.776,11.2559984 138.776,11.576 L138.776,12.416 C139.192002,11.7759968 139.771996,11.2360022 140.516,10.796 C141.260004,10.3559978 142.055996,10.136 142.904,10.136 Z" id="Plusadmin" fill="#000000"></path>
        </g>
    </g>
</svg>